<svg preserveAspectRatio="xMidYMid meet" width="1024" height="1024" viewBox="0 0 26.2492 26.26" fill="none" xmlns="http://www.w3.org/2000/svg" role="img" aria-label="Arvya spiral logo, gold">
<path id="Union" fill-rule="evenodd" clip-rule="evenodd" d="M16.9574 3.06682L17.9714 2.5347C19.0102 1.98926 20.2624 2.04356 21.2495 2.67786L22.6405 3.57192L21.7416 6.63982L22.8826 6.7403C24.0513 6.84305 25.0751 7.56603 25.5626 8.63323L26.2492 10.1377L23.8344 12.2327L24.7398 12.9339C25.6675 13.6522 26.1379 14.814 25.971 15.9753L25.736 17.6122L22.5714 18.0692L22.9544 19.1486C23.3464 20.2543 23.1139 21.4859 22.3456 22.3726L21.263 23.6221L18.3534 22.2964L18.0924 23.4109C17.8244 24.5531 16.9632 25.4637 15.8376 25.7943L14.251 26.26L12.5196 23.5713L11.6973 24.3682C10.8544 25.184 9.63788 25.4846 8.51222 25.1542L6.9256 24.688L6.92289 21.491L5.80032 21.7162C4.65002 21.9469 3.46402 21.5419 2.69569 20.6552L1.61309 19.4052L3.33909 16.7138L2.27324 16.2968C1.18083 15.8689 0.401996 14.8872 0.234995 13.7259L0 12.089L2.90637 10.7584L2.23596 9.83143C1.54826 8.88089 1.42397 7.6336 1.91129 6.56635L2.59845 5.06184L5.76251 5.51401L5.69984 4.37144C5.63523 3.19999 6.20547 2.08374 7.19246 1.44941L8.58352 0.555344L11.001 2.64653L11.5661 1.65145C12.145 0.630992 13.2278 2.9986e-05 14.4011 0H16.0547L16.9574 3.06682ZM13.6216 22.5049L14.9062 24.4994L15.4135 24.3509C16.0197 24.1728 16.4831 23.6819 16.6274 23.0668L16.9569 21.66L15.2822 20.8967L13.6216 22.5049ZM8.42632 21.189L8.42848 23.5616L8.93575 23.7102C9.54196 23.8881 10.1976 23.7261 10.6515 23.2866L11.6892 22.2813L10.6931 20.7341L8.42632 21.189ZM19.2318 18.5522L18.704 20.8033L20.8627 21.787L21.209 21.3872C21.6226 20.9098 21.7474 20.2463 21.5363 19.651L21.0528 18.2891L19.2318 18.5522ZM10.1296 7.23298L10.1302 7.23352L10.0189 7.42908L9.90598 7.62572L9.61372 7.58358L7.36641 7.26269L7.50957 9.84385L7.51713 9.98701L7.522 10.0686L7.53334 10.2949L5.20122 11.3624L6.71653 13.4563L6.75381 13.5076L6.84888 13.6389L6.84834 13.6394L6.98016 13.8231L6.82079 14.0711L6.82133 14.0716L5.59558 15.9818L8.21239 17.0061L8.42254 17.0898L8.42308 17.3853L8.4247 19.6548L11.0745 19.1232L11.4024 19.0589L12.7907 21.2149L14.6486 19.4165L14.9738 19.1037L15.2417 19.2264L15.2423 19.2258L17.3075 20.1669L17.898 17.6495L17.8974 17.65L17.9266 17.5252L18.0022 17.2113L20.5402 16.8435L19.6758 14.4071L19.631 14.279L19.6013 14.1959L19.5267 13.9814L19.7493 13.7885L21.4634 12.2997L19.2415 10.5802V10.5791L19.0632 10.4403L19.7828 7.97848L17.2076 7.75267L17.2081 7.75321L17.1082 7.74403L16.9845 7.73322L16.9839 7.73268L16.7586 7.71215L16.6754 7.42908L16.0331 5.252L13.7448 6.45399L13.7453 6.45453L13.6664 6.49504L13.546 6.55879L13.5449 6.55825L13.345 6.66251L11.4045 4.98513L10.1296 7.23298ZM3.48657 19.2701L3.83285 19.6699C4.24657 20.1473 4.88544 20.3651 5.50482 20.2409L6.92127 19.9562L6.92019 18.1162L4.76742 17.2729L3.48657 19.2701ZM21.2857 14.4449L22.0587 16.6241L24.4065 16.2843L24.4821 15.7609C24.5719 15.1356 24.3182 14.5102 23.8188 14.1235L22.6757 13.2386L21.2857 14.4449ZM1.64929 12.9885L1.72438 13.5119C1.81437 14.1371 2.234 14.6656 2.8221 14.896L4.16778 15.4227L5.16124 13.8739L3.80584 12.0009L1.64929 12.9885ZM20.7935 9.87843L22.6216 11.2943L24.4135 9.73959L24.1937 9.25826C23.9311 8.68366 23.3795 8.29468 22.7502 8.23941L21.3105 8.113L20.7935 9.87843ZM3.27966 7.19138C3.01734 7.76606 3.0849 8.43801 3.45523 8.94979L4.30176 10.1199L5.97535 9.35388L5.84732 7.04552L3.49953 6.71005L3.27966 7.19138ZM20.4359 3.94359C19.9044 3.60207 19.2298 3.57313 18.6705 3.86688L17.3912 4.53837L17.9109 6.3038L20.2139 6.50585L20.881 4.22991L20.4359 3.94359ZM8.00549 2.71514C7.47413 3.05671 7.16742 3.65808 7.20219 4.28879L7.2816 5.73117L9.10375 5.99156L10.2442 3.98087L8.45063 2.42936L8.00549 2.71514ZM14.4011 1.50451C13.7693 1.50454 13.1862 1.84471 12.8745 2.39425L12.1614 3.65079L13.5535 4.85494L15.5999 3.77991L14.93 1.50451H14.4011Z" fill="#CF9742"/>
</svg>
